<?xml version="1.0" standalone="no"?>
<!DOCTYPE svg PUBLIC "-//W3C//DTD SVG 20010904//EN"
 "http://www.w3.org/TR/2001/REC-SVG-20010904/DTD/svg10.dtd">
<svg version="1.0" xmlns="http://www.w3.org/2000/svg"
 width="1024.000000pt" height="1024.000000pt" viewBox="0 0 1024.000000 1024.000000"
 preserveAspectRatio="xMidYMid meet">

<g transform="translate(0.000000,1024.000000) scale(0.100000,-0.100000)"
fill="#000000" stroke="none">
<path d="M5160 7885 l0 -212 70 -7 c165 -17 339 -91 481 -205 137 -110 234
-257 281 -427 19 -66 22 -104 22 -239 0 -146 -3 -168 -28 -249 -72 -236 -244
-492 -643 -957 -72 -85 -143 -165 -157 -178 l-26 -24 0 -319 c0 -275 2 -318
15 -318 20 0 179 84 290 153 486 301 849 717 1057 1212 138 327 229 771 242
1170 3 109 2 121 -4 55 -10 -111 -22 -168 -59 -268 -33 -92 -132 -282 -156
-302 -9 -7 5 22 30 64 25 43 43 81 40 87 -4 5 -2 9 3 9 7 0 32 42 32 54 0 10
-30 0 -34 -11 -4 -9 -1 -11 6 -7 7 4 8 3 4 -5 -6 -8 -12 -9 -20 -2 -9 7 -16 7
-25 -2 -10 -9 -11 -9 -6 4 5 12 -1 16 -29 16 -19 0 -33 -5 -29 -10 3 -5 -4 -4
-15 2 -28 15 -32 14 -25 -5 3 -9 -6 -4 -23 11 -25 23 -27 28 -15 48 8 13 1 9
-19 -10 -36 -38 -36 -38 -44 -18 -4 11 3 19 19 25 14 5 25 15 25 22 0 10 -2
10 -9 -1 -5 -7 -14 -10 -20 -7 -6 4 -11 2 -11 -4 0 -6 -4 -8 -10 -5 -5 3 -10
-1 -10 -10 0 -9 -4 -14 -10 -10 -5 3 -7 12 -4 20 10 25 -6 38 -23 18 -10 -13
-13 -14 -10 -3 8 31 -41 56 -61 31 -11 -14 -11 -14 -6 2 4 12 1 17 -11 17 -9
0 -14 4 -11 9 7 11 -19 33 -28 23 -4 -4 -6 0 -4 8 2 10 -4 14 -19 12 -18 -3
-21 0 -16 14 4 12 3 15 -5 10 -19 -12 -35 4 -21 20 10 12 14 12 20 2 6 -9 9
-9 9 -1 0 16 -17 26 -25 13 -3 -5 -11 -10 -16 -10 -6 0 -7 5 -3 12 4 7 3 8 -4
4 -7 -4 -12 -1 -12 6 0 8 -5 6 -11 -5 -8 -14 -4 -36 14 -90 14 -40 28 -94 31
-122 l5 -50 -13 55 c-54 231 -195 431 -398 564 -42 28 -56 43 -53 57 2 11 0
17 -6 14 -5 -4 -7 -11 -4 -16 4 -5 3 -9 0 -9 -14 0 -141 75 -152 90 -7 8 -13
11 -13 6 0 -5 -7 -3 -15 4 -12 10 -12 15 5 33 14 14 16 23 9 28 -6 4 -9 11 -6
16 3 5 2 15 -4 23 -6 11 -9 12 -9 2 0 -7 -5 -10 -11 -6 -6 3 -9 15 -6 25 4 14
0 19 -14 19 -10 0 -19 -5 -19 -11 0 -5 5 -7 10 -4 6 3 10 -1 10 -9 0 -10 -6
-13 -15 -10 -8 4 -15 12 -15 20 0 8 -4 14 -9 14 -5 0 -8 8 -6 18 1 10 10 16
21 15 17 -1 17 0 3 10 -9 7 -14 18 -11 26 4 12 3 12 -10 0 -12 -10 -13 -16 -4
-22 7 -6 5 -7 -5 -4 -9 3 -21 1 -27 -5 -6 -6 -12 -6 -16 1 -4 6 -1 11 7 11 8
0 18 7 21 16 8 21 9 18 -13 43 -11 13 -22 28 -24 34 -3 9 -10 8 -27 -1 -15 -9
-20 -10 -15 -2 5 9 1 10 -12 6 -17 -5 -20 -3 -16 16 4 19 -2 26 -29 36 -19 6
-39 12 -45 12 -7 0 -9 -49 -7 -146 2 -80 1 -151 -3 -158 -4 -6 -8 -17 -9 -24
-2 -8 -5 -16 -8 -20 -4 -3 -6 79 -6 181 l1 187 27 -6 c15 -4 70 -22 122 -41
196 -71 599 -207 710 -239 173 -51 381 -105 392 -102 6 2 -48 18 -119 36 -190
49 -446 129 -770 243 -158 55 -307 107 -330 114 l-43 13 0 -213z m203 70 c11
-16 13 -26 6 -30 -6 -4 -13 2 -16 14 -3 12 -9 21 -13 21 -4 0 -10 7 -13 14 -9
22 15 9 36 -19z m35 -140 c-3 -3 -9 2 -12 12 -6 14 -5 15 5 6 7 -7 10 -15 7
-18z m72 -25 c0 -5 -4 -10 -9 -10 -6 0 -13 5 -16 10 -3 6 1 10 9 10 9 0 16 -4
16 -10z m-217 -107 c-7 -2 -19 -2 -25 0 -7 3 -2 5 12 5 14 0 19 -2 13 -5z
m894 -900 c-2 -32 -3 -8 -3 52 0 61 1 87 3 58 2 -29 2 -78 0 -110z m363 -63
c-12 -16 -24 -30 -26 -30 -3 0 4 14 16 30 12 17 24 30 26 30 3 0 -4 -13 -16
-30z m-40 -54 c0 -2 -8 -10 -17 -17 -16 -13 -17 -12 -4 4 13 16 21 21 21 13z"/>
<path d="M5005 8073 c-139 -52 -724 -244 -900 -294 -201 -58 -517 -133 -612
-146 l-45 -6 7 -131 c36 -720 164 -1244 405 -1665 209 -365 525 -690 891 -916
110 -68 291 -165 307 -165 9 0 12 83 12 320 l0 320 -116 132 c-279 318 -516
636 -617 829 -196 371 -157 742 107 1036 131 145 358 258 564 279 l62 7 0 208
c0 230 4 219 -65 192z"/>
<path d="M5410 7972 c0 -5 7 -9 15 -9 8 0 15 4 15 9 0 4 -7 8 -15 8 -8 0 -15
-4 -15 -8z"/>
<path d="M5525 7760 c3 -5 -1 -10 -9 -10 -20 0 -20 -5 1 -36 17 -27 106 -78
117 -67 3 4 6 1 6 -6 0 -7 5 -9 11 -6 6 5 4 12 -8 20 -10 7 -21 11 -24 9 -10
-6 -20 26 -12 39 4 7 0 6 -10 -1 -9 -8 -25 -11 -38 -7 -15 5 -18 9 -9 15 9 5
9 9 1 14 -6 4 -15 5 -20 1 -5 -3 -12 -1 -15 4 -4 5 3 12 14 16 24 8 27 25 4
25 -8 0 -12 -4 -9 -10z"/>
<path d="M6442 7684 c7 -6 187 -44 208 -43 16 1 -176 48 -199 49 -8 0 -12 -2
-9 -6z"/>
<path d="M6720 7626 c50 -11 70 -12 59 -2 -2 2 -29 6 -59 9 l-55 6 55 -13z"/>
<path d="M5716 7589 c4 -8 30 -6 38 2 3 3 -5 5 -19 5 -13 0 -22 -3 -19 -7z"/>
<path d="M6773 7520 c0 -47 2 -66 4 -42 2 23 2 61 0 85 -2 23 -4 4 -4 -43z"/>
<path d="M5770 7561 c0 -5 5 -13 10 -16 6 -3 10 -2 10 4 0 5 -4 13 -10 16 -5
3 -10 2 -10 -4z"/>
<path d="M5838 7503 c7 -3 16 -2 19 1 4 3 -2 6 -13 5 -11 0 -14 -3 -6 -6z"/>
<path d="M4977 7345 c-179 -45 -336 -180 -403 -345 -21 -52 -28 -87 -32 -170
-10 -235 46 -342 408 -765 89 -104 165 -191 169 -193 8 -3 338 386 427 503
140 187 188 357 150 535 -43 199 -181 346 -396 422 -74 26 -243 33 -323 13z
m237 -306 c142 -53 207 -218 138 -350 -100 -191 -373 -184 -461 11 -49 108
-13 243 83 308 84 56 151 65 240 31z"/>
<path d="M6071 7264 c0 -11 3 -14 6 -6 3 7 2 16 -1 19 -3 4 -6 -2 -5 -13z"/>
<path d="M6060 7228 c0 -9 5 -20 10 -23 13 -8 13 5 0 25 -8 13 -10 13 -10 -2z"/>
<path d="M6295 7121 c-3 -5 -2 -12 3 -15 5 -3 9 1 9 9 0 17 -3 19 -12 6z"/>
<path d="M6505 7002 c3 -4 20 -7 36 -8 39 -2 28 9 -12 12 -17 1 -28 -1 -24 -4z"/>
<path d="M3193 4551 c-201 -32 -345 -128 -414 -275 -40 -85 -52 -162 -46 -281
7 -122 33 -204 92 -284 80 -109 206 -171 385 -191 131 -15 222 -7 393 32 l87
20 0 259 0 259 -210 0 -210 0 0 -90 0 -90 90 0 90 0 0 -84 0 -84 -37 -13 c-48
-15 -157 -14 -214 2 -64 19 -141 98 -168 172 -26 70 -28 180 -5 257 19 65 100
152 160 170 21 7 93 15 159 17 120 4 134 2 325 -48 13 -3 15 14 18 106 l3 111
-88 18 c-98 21 -327 30 -410 17z"/>
<path d="M6975 4460 l-100 -26 -3 -82 -3 -82 -64 0 -65 0 0 -85 0 -85 54 0 54
0 4 -222 c3 -216 4 -224 28 -267 16 -27 39 -50 64 -63 69 -35 231 -39 346 -8
l40 11 0 84 0 84 -31 -11 c-16 -6 -58 -8 -91 -6 -51 4 -65 9 -85 32 -22 26
-23 33 -23 197 l0 169 115 0 115 0 0 85 0 85 -116 0 -116 0 6 73 c4 39 9 89
12 110 5 34 4 37 -18 36 -12 -1 -68 -14 -123 -29z"/>
<path d="M4033 4275 c-39 -7 -96 -24 -127 -38 l-55 -26 5 -53 c3 -29 7 -63 10
-74 l4 -22 64 24 c96 34 185 48 233 35 49 -13 72 -38 80 -85 l6 -36 -50 0
c-129 0 -304 -50 -362 -103 -83 -76 -81 -231 4 -313 90 -87 280 -87 382 1 l42
35 6 -45 7 -45 107 0 107 0 -3 173 c-7 396 -7 389 -36 449 -59 121 -204 163
-424 123z m220 -449 c-4 -96 -54 -143 -142 -133 -69 8 -103 68 -71 128 20 36
111 69 180 66 l35 -2 -2 -59z"/>
<path d="M4992 4271 c-36 -12 -70 -35 -103 -67 l-49 -48 0 57 0 57 -112 0
-113 0 2 -367 3 -368 120 -3 120 -3 0 209 c0 196 1 210 23 252 26 54 76 82
154 88 l53 4 0 104 c0 120 1 119 -98 85z"/>
<path d="M5390 4283 c-45 -5 -150 -37 -191 -58 l-31 -16 7 -72 c4 -40 9 -73
10 -75 2 -2 16 3 32 11 66 34 204 59 259 47 46 -11 84 -50 84 -89 l0 -28 -87
-6 c-161 -12 -292 -60 -339 -124 -69 -94 -55 -229 30 -300 47 -38 96 -53 178
-53 80 0 138 19 194 65 41 34 42 34 48 12 3 -12 6 -32 6 -45 0 -22 1 -23 111
-20 l110 3 -1 243 c-1 261 -7 322 -43 392 -49 96 -181 135 -377 113z m180
-445 c0 -66 -27 -114 -75 -134 -83 -34 -155 -3 -155 67 0 50 31 83 91 99 24 6
49 13 54 15 6 2 27 4 48 4 l37 1 0 -52z"/>
<path d="M6325 4276 c-57 -18 -82 -33 -131 -78 l-44 -41 0 57 0 56 -115 0
-115 0 0 -370 0 -370 125 0 125 0 0 228 c0 209 2 230 20 260 39 64 110 88 171
56 53 -27 59 -58 59 -314 l0 -230 128 0 127 0 -3 277 c-3 312 -9 347 -69 414
-57 62 -178 86 -278 55z"/>
<path d="M5378 3343 l-68 -4 0 -349 0 -350 85 0 85 0 0 121 0 121 86 -121 87
-121 93 0 c52 0 94 3 94 6 0 5 -26 40 -158 214 l-49 65 93 101 c52 56 94 104
94 107 0 3 -40 5 -88 6 l-88 1 -82 -96 -82 -96 0 201 c0 186 -1 201 -17 199
-10 -1 -48 -3 -85 -5z"/>
<path d="M3203 3265 l-1 -65 104 0 104 0 0 -280 0 -280 95 0 95 0 0 280 0 280
100 0 100 0 0 65 0 65 -297 0 -298 0 -2 -65z"/>
<path d="M4086 3135 c-21 -7 -56 -31 -77 -51 l-39 -38 0 48 0 49 -61 -7 c-34
-3 -70 -6 -80 -6 -18 0 -19 -13 -19 -245 l0 -245 85 0 85 0 0 145 0 145 28 31
c24 27 37 33 85 37 l57 4 0 64 c0 35 0 67 1 72 0 13 -25 12 -65 -3z"/>
<path d="M4370 3140 c-78 -12 -133 -37 -126 -56 3 -9 6 -33 6 -54 l0 -39 57
20 c74 25 164 26 186 1 10 -10 17 -28 17 -40 0 -19 -5 -22 -46 -22 -25 0 -77
-7 -117 -16 -60 -14 -79 -23 -113 -58 -53 -53 -63 -98 -35 -161 16 -36 29 -50
63 -65 71 -32 162 -22 225 26 40 30 41 30 45 -3 3 -27 5 -28 73 -31 l70 -3 -3
173 c-1 95 -5 187 -7 204 -16 95 -140 148 -295 124z m150 -289 c0 -47 -17 -79
-49 -96 -63 -32 -121 -11 -121 44 0 35 18 51 78 67 78 21 92 19 92 -15z"/>
<path d="M4965 3137 c-70 -19 -106 -39 -148 -86 -84 -93 -84 -256 0 -343 48
-50 117 -72 223 -72 52 0 112 5 133 13 l37 13 0 58 0 59 -41 -14 c-55 -20
-133 -19 -175 1 -95 45 -83 216 16 251 41 15 122 8 163 -14 16 -8 30 -13 32
-11 1 2 6 29 9 61 l7 57 -35 15 c-50 21 -162 27 -221 12z"/>
<path d="M6042 3140 c-83 -18 -146 -72 -177 -155 -24 -61 -16 -180 15 -229 29
-47 81 -91 127 -107 58 -21 217 -18 276 4 l47 19 0 54 c0 30 -2 54 -4 54 -2 0
-23 -7 -47 -16 -60 -22 -165 -22 -206 -1 -30 16 -63 61 -63 87 0 6 60 10 176
10 l177 0 -6 69 c-6 71 -30 133 -64 163 -48 44 -165 66 -251 48z m142 -125
c15 -14 26 -35 26 -50 l0 -25 -101 0 -101 0 6 28 c17 70 115 98 170 47z"/>
<path d="M6732 3138 c-30 -7 -56 -22 -83 -49 l-39 -39 0 39 c0 22 -3 42 -7 44
-5 3 -41 2 -80 0 l-73 -6 0 -243 0 -244 79 0 79 0 4 140 c3 121 6 143 24 167
27 36 68 56 116 56 l38 0 0 68 c0 37 -3 70 -7 72 -5 2 -27 0 -51 -5z"/>
</g>
</svg>
